<svg id="Capa_1" enable-background="new 0 0 494.073 494.073" height="512" viewBox="0 0 494.073 494.073" width="512" xmlns="http://www.w3.org/2000/svg"><g><path d="m442.242 444.401-26.215-324.049c-.724-8.951-8.198-15.845-17.178-15.845h-51.458v-4.159c0-55.33-45.018-100.348-100.354-100.348s-100.354 45.018-100.354 100.354v4.159h-51.458c-8.979 0-16.454 6.894-17.178 15.845l-26.215 324.043c-1.034 12.76 3.344 25.468 12.019 34.867 8.681 9.41 20.998 14.805 33.792 14.805h298.788c12.8 0 25.112-5.395 33.792-14.805 8.675-9.405 13.047-22.113 12.019-34.867zm-261.089-344.047c0-36.326 29.558-65.884 65.884-65.884s65.884 29.558 65.884 65.884v4.159h-131.768zm223.729 355.543c-1.275 1.39-4.068 3.706-8.451 3.706h-298.788c-4.383 0-7.176-2.315-8.451-3.706-1.275-1.379-3.355-4.349-2.999-8.715l24.933-308.204h35.556v85.44c0 9.52 7.716 17.235 17.235 17.235s17.235-7.716 17.235-17.235v-85.44h131.768v85.44c0 9.52 7.716 17.235 17.235 17.235 9.52 0 17.235-7.716 17.235-17.235v-85.44h35.556l24.933 308.21c.358 4.366-1.727 7.33-2.997 8.709z"/></g></svg>